<svg id="Capa_1" enable-background="new 0 0 512 512" height="512" viewBox="0 0 512 512" width="512" xmlns="http://www.w3.org/2000/svg"><path d="m328.343 136.865c-8.284 0-15-6.716-15-15v-42.54c0-8.271-6.729-15-15-15h-84.687c-8.271 0-15 6.729-15 15v42.54c0 8.284-6.716 15-15 15s-15-6.716-15-15v-42.54c0-24.813 20.187-45 45-45h84.687c24.813 0 45 20.187 45 45v42.54c0 8.284-6.716 15-15 15z" fill="#505459"/><path d="m298.343 34.325h-45.462v30h45.462c8.271 0 15 6.729 15 15v42.54c0 8.284 6.716 15 15 15s15-6.716 15-15v-42.54c0-24.813-20.187-45-45-45z" fill="#34373b"/><path d="m467 477.675h-422c-24.813 0-45-20.187-45-45v-280.81c0-24.813 20.187-45 45-45h422c24.813 0 45 20.187 45 45v280.81c0 24.813-20.187 45-45 45z" fill="#f2f4f7"/><path d="m467 106.865h-214.119v370.81h214.119c24.813 0 45-20.187 45-45v-280.81c0-24.813-20.187-45-45-45z" fill="#c7e7ff"/><path d="m285.002 260.149v-49.242c0-8.284-6.716-15-15-15h-34.242c-8.284 0-15 6.716-15 15v49.242h-49.242c-8.284 0-15 6.716-15 15v34.242c0 8.284 6.716 15 15 15h49.242v49.242c0 8.284 6.716 15 15 15h34.242c8.284 0 15-6.716 15-15v-49.242h49.242c8.284 0 15-6.716 15-15v-34.242c0-8.284-6.716-15-15-15z" fill="#ff5b6e"/><path d="m285.002 260.149v-49.242c0-8.284-6.716-15-15-15h-17.121v192.726h17.121c8.284 0 15-6.716 15-15v-49.242h49.242c8.284 0 15-6.716 15-15v-34.242c0-8.284-6.716-15-15-15z" fill="#db2e43"/></svg>