<svg id="Capa_1" enable-background="new 0 0 511.337 511.337" height="512" viewBox="0 0 511.337 511.337" width="512" xmlns="http://www.w3.org/2000/svg"><path d="m383.081 234.932h-254.027c-8.284 0-15 6.716-15 15v174.591c0 8.284 6.716 15 15 15h254.027c8.284 0 15-6.716 15-15v-174.591c0-8.284-6.715-15-15-15z" fill="#ffa34c"/><path d="m383.081 234.932h-127.413v204.591h127.413c8.284 0 15-6.716 15-15v-174.591c0-8.284-6.715-15-15-15z" fill="#f08546"/><circle cx="255.668" cy="249.496" fill="#ffc2a3" r="142.413"/><path d="m398.081 249.496c0 78.653-63.76 142.413-142.413 142.413v-284.826c78.653 0 142.413 63.76 142.413 142.413z" fill="#f5ab98"/><path d="m392.773 210.857c-16.84-59.877-71.844-103.775-137.105-103.775-65.26 0-120.265 43.898-137.105 103.775z" fill="#ffa34c"/><path d="m392.773 210.857c-16.84-59.877-71.844-103.775-137.105-103.775v103.775z" fill="#f08546"/><path d="m360.529 381.608h-209.721c-43.035 0-78.047 35.012-78.047 78.047v36.681c0 8.284 6.716 15 15 15h335.814c8.284 0 15-6.716 15-15v-36.681c.001-43.035-35.011-78.047-78.046-78.047z" fill="#f2f4f7"/><path d="m360.529 381.608h-104.86v129.729h167.907c8.284 0 15-6.716 15-15v-36.681c0-43.036-35.012-78.048-78.047-78.048z" fill="#c7e7ff"/><path d="m367.461 42.788-106.31-41.75c-3.525-1.384-7.441-1.384-10.967 0l-106.31 41.75c-7.369 2.894-11.22 11.017-8.797 18.553l29.336 91.241c1.994 6.203 7.765 10.409 14.28 10.409h153.947c6.516 0 12.286-4.206 14.28-10.409l29.336-91.241c2.425-7.537-1.426-15.659-8.795-18.553z" fill="#f2f4f7"/><path d="m367.461 42.788-106.31-41.75c-1.762-.692-3.622-1.038-5.482-1.038v162.991h76.974c6.516 0 12.286-4.206 14.28-10.409l29.336-91.241c2.422-7.537-1.429-15.659-8.798-18.553z" fill="#c7e7ff"/><path d="m277.905 79.804h-7.237v-7.236c0-8.284-6.716-15-15-15s-15 6.716-15 15v7.236h-7.237c-8.284 0-15 6.716-15 15s6.716 15 15 15h7.237v7.237c0 8.284 6.716 15 15 15s15-6.716 15-15v-7.237h7.237c8.284 0 15-6.716 15-15s-6.716-15-15-15z" fill="#ff5b6e"/><path d="m277.905 79.804h-7.237v-7.236c0-8.284-6.716-15-15-15v74.473c8.284 0 15-6.716 15-15v-7.237h7.237c8.284 0 15-6.716 15-15s-6.716-15-15-15z" fill="#db2e43"/></svg>