<svg id="Capa_1" enable-background="new 0 0 512.008 512.008" height="512" viewBox="0 0 512.008 512.008" width="512" xmlns="http://www.w3.org/2000/svg"><path d="m510.859 183.32c-3.172-7.652-11.948-11.282-19.602-8.11l-235.254 97.557-235.253-97.557c-7.652-3.174-16.43.458-19.602 8.11-3.174 7.652.457 16.428 8.109 19.602l207.588 86.084-175.599 72.819c-7.652 3.173-11.283 11.949-8.109 19.602 2.394 5.773 7.978 9.258 13.861 9.258 1.914 0 3.861-.369 5.74-1.148l203.266-84.292 203.266 84.292c1.879.779 3.825 1.148 5.74 1.148 5.884 0 11.468-3.484 13.861-9.258 3.174-7.652-.457-16.429-8.109-19.602l-175.599-72.819 207.588-86.084c7.651-3.173 11.282-11.949 8.108-19.602z" fill="#ff5b6e"/><path d="m510.859 183.32c-3.172-7.652-11.948-11.282-19.602-8.11l-235.254 97.557v32.477l203.266 84.292c1.879.779 3.825 1.148 5.74 1.148 5.884 0 11.468-3.484 13.861-9.258 3.174-7.652-.457-16.429-8.109-19.602l-175.599-72.819 207.588-86.084c7.652-3.172 11.283-11.948 8.109-19.601z" fill="#db2e43"/><circle cx="81.926" cy="402.999" fill="#505459" r="34.934"/><path d="m81.926 437.933c19.293 0 34.934-15.64 34.934-34.934 0-19.293-15.64-34.934-34.934-34.934z" fill="#34373b"/><path d="m90.06 74.074c-29.344 0-53.217 23.873-53.217 53.217v38.217c0 8.284 6.716 15 15 15h76.434c8.284 0 15-6.716 15-15v-38.217c0-29.344-23.873-53.217-53.217-53.217z" fill="#c7e7ff"/><path d="m497.004 122.033h-482c-8.284 0-15 6.716-15 15v52.033c0 8.284 6.716 15 15 15h482c8.284 0 15-6.716 15-15v-52.033c0-8.284-6.716-15-15-15z" fill="#f2f4f7"/><path d="m497.004 122.033h-241v82.033h241c8.284 0 15-6.716 15-15v-52.033c0-8.284-6.716-15-15-15z" fill="#c7e7ff"/><circle cx="430.082" cy="402.999" fill="#505459" r="34.934"/><path d="m430.082 437.933c19.293 0 34.934-15.64 34.934-34.934 0-19.293-15.64-34.934-34.934-34.934z" fill="#34373b"/></svg>