<svg id="Capa_1" enable-background="new 0 0 512 512" height="512" viewBox="0 0 512 512" width="512" xmlns="http://www.w3.org/2000/svg"><path d="m386.197 303.883h30v139.268h-30z" fill="#c7e7ff"/><path d="m108.672 270.418h-62.73v-246.102c0-4.718 3.824-8.542 8.542-8.542 29.927 0 54.188 24.261 54.188 54.188z" fill="#ffa34c"/><path d="m407.778 315.98h-201.177c-15.835 0-28.672-12.837-28.672-28.672 0-15.835 12.837-28.672 28.672-28.672h201.177c15.835 0 28.672 12.837 28.672 28.672 0 15.835-12.837 28.672-28.672 28.672z" fill="#f08546"/><circle cx="177.929" cy="318.296" fill="#505459" r="177.929"/><path d="m355.858 318.296c0 98.268-79.662 177.929-177.929 177.929v-355.858c98.268 0 177.929 79.662 177.929 177.929z" fill="#34373b"/><path d="m497 438.938h-95.803c-8.284 0-15 6.716-15 15s6.716 15 15 15h95.803c8.284 0 15-6.716 15-15s-6.716-15-15-15z" fill="#c7e7ff"/><circle cx="177.929" cy="318.296" fill="#f2f4f7" r="124.982"/><path d="m302.911 318.296c0 69.026-55.956 124.982-124.982 124.982v-249.963c69.026 0 124.982 55.956 124.982 124.981z" fill="#c7e7ff"/><circle cx="401.516" cy="453.938" fill="#505459" r="34.934"/><path d="m401.516 488.872c19.293 0 34.934-15.64 34.934-34.934 0-19.293-15.64-34.934-34.934-34.934z" fill="#34373b"/><path d="m177.929 264.225c-29.815 0-54.071 24.256-54.071 54.071 0 29.814 24.256 54.07 54.071 54.07 29.814 0 54.07-24.256 54.07-54.07.001-29.815-24.255-54.071-54.07-54.071zm0 78.142c-13.273 0-24.071-10.798-24.071-24.07 0-13.273 10.798-24.071 24.071-24.071 13.272 0 24.07 10.798 24.07 24.071.001 13.272-10.797 24.07-24.07 24.07z" fill="#ffa34c"/><path d="m177.929 264.225v30c13.272 0 24.07 10.798 24.07 24.071 0 13.272-10.798 24.07-24.07 24.07v30c29.814 0 54.07-24.256 54.07-54.07.001-29.815-24.255-54.071-54.07-54.071z" fill="#f08546"/></svg>