<svg id="Capa_1" enable-background="new 0 0 512 512" height="512" viewBox="0 0 512 512" width="512" xmlns="http://www.w3.org/2000/svg"><path d="m294.126 175.192h-76.252c-8.284 0-15 6.716-15 15s6.716 15 15 15h76.252c8.284 0 15-6.716 15-15s-6.716-15-15-15z" fill="#8dc4eb"/><path d="m294.129 11.456c-8.284 0-15 6.716-15 15v233.139l-23.13 79.563-23.128-79.563v-233.139c0-8.284-6.716-15-15-15s-15 6.716-15 15v235.275c0 1.417.201 2.826.597 4.188l38.128 131.162c1.862 6.406 7.731 10.813 14.403 10.813 6.671 0 12.541-4.406 14.403-10.813l38.13-131.162c.396-1.36.597-2.771.597-4.188v-235.275c0-8.284-6.716-15-15-15z" fill="#f2f4f7"/><path d="m294.129 11.456c-8.284 0-15 6.716-15 15v233.139l-23.13 79.563v68.735c6.671 0 12.541-4.406 14.403-10.813l38.13-131.162c.396-1.36.597-2.771.597-4.188v-235.274c0-8.284-6.716-15-15-15z" fill="#c7e7ff"/><path d="m240.547 375.25v115.096c0 8.534 6.918 15.453 15.453 15.453s15.453-6.918 15.453-15.453v-115.096z" fill="#f2f4f7"/><path d="m256 375.25v130.548c8.534 0 15.453-6.918 15.453-15.453v-115.095z" fill="#c7e7ff"/><path d="m256 38.907c-17.075 0-34.151-1.5-51.106-4.501l-21.105-3.735c-8.403-1.487-14.01-9.505-12.523-17.909s9.503-14.008 17.909-12.524l21.105 3.735c30.338 5.369 61.102 5.369 91.44 0l21.105-3.735c8.4-1.485 16.422 4.12 17.909 12.524 1.487 8.403-4.12 16.421-12.523 17.909l-21.105 3.735c-16.955 3-34.031 4.501-51.106 4.501z" fill="#ffa34c"/><path d="m340.734 12.762c-1.487-8.404-9.509-14.008-17.909-12.524l-21.105 3.735c-15.169 2.685-30.444 4.027-45.72 4.027v30.907c17.075 0 34.151-1.5 51.106-4.501l21.105-3.735c8.403-1.488 14.01-9.506 12.523-17.909z" fill="#f08546"/><path d="m291.617 485.212c0-19.67-15.946-35.617-35.617-35.617s-35.617 15.946-35.617 35.617v26.788h71.233v-26.788z" fill="#505459"/><path d="m256 449.596v62.404h35.617v-26.788c0-19.67-15.947-35.616-35.617-35.616z" fill="#34373b"/></svg>