<svg id="Capa_1" enable-background="new 0 0 512 512" height="512" viewBox="0 0 512 512" width="512" xmlns="http://www.w3.org/2000/svg"><path d="m497 274.173h-482c-8.284 0-15 6.716-15 15v191.113c0 8.284 6.716 15 15 15h482c8.284 0 15-6.716 15-15v-191.113c0-8.284-6.716-15-15-15z" fill="#c7e7ff"/><path d="m497 274.173h-241v221.113h241c8.284 0 15-6.716 15-15v-191.113c0-8.284-6.716-15-15-15z" fill="#8dc4eb"/><path d="m381.103 82.457h-250.206c-8.284 0-15 6.716-15 15v226.863c0 8.284 6.716 15 15 15h250.205c8.284 0 15-6.716 15-15v-226.863c.001-8.284-6.715-15-14.999-15z" fill="#c7e7ff"/><path d="m381.103 82.457h-125.103v256.863h125.103c8.284 0 15-6.716 15-15v-226.863c0-8.284-6.716-15-15-15z" fill="#8dc4eb"/><path d="m282.914 70.543v-38.829c0-8.284-6.716-15-15-15h-23.829c-8.284 0-15 6.716-15 15v38.829h-38.829c-8.284 0-15 6.716-15 15v23.829c0 8.284 6.716 15 15 15h38.829v38.829c0 8.284 6.716 15 15 15h23.829c8.284 0 15-6.716 15-15v-38.829h38.829c8.284 0 15-6.716 15-15v-23.829c0-8.284-6.716-15-15-15z" fill="#ff5b6e"/><path d="m321.743 70.543h-38.829v-38.829c0-8.284-6.716-15-15-15h-11.914v161.487h11.915c8.284 0 15-6.716 15-15v-38.829h38.829c8.284 0 15-6.716 15-15v-23.829c-.001-8.284-6.717-15-15.001-15z" fill="#db2e43"/><path d="m421.195 238.423h-330.39c-8.284 0-15 6.716-15 15v241.863h360.391v-241.863c-.001-8.285-6.716-15-15.001-15z" fill="#f2f4f7"/><path d="m421.195 238.423h-165.195v256.863h180.195v-241.863c0-8.285-6.715-15-15-15z" fill="#c7e7ff"/><path d="m256.679 416.663h-45.973c-8.284 0-15 6.716-15 15v63.623h60.973 59.615v-63.623c0-8.284-6.716-15-15-15z" fill="#5a5a5a"/><path d="m301.294 416.663h-45.294v78.623h60.294v-63.623c0-8.284-6.716-15-15-15z" fill="#444"/><path d="m345.657 360.669h-179.314c-8.284 0-15-6.716-15-15v-16.461c0-8.284 6.716-15 15-15h179.314c8.284 0 15 6.716 15 15v16.461c0 8.284-6.715 15-15 15z" fill="#a3d3ff"/><path d="m345.657 314.208h-89.657v46.461h89.657c8.284 0 15-6.716 15-15v-16.461c0-8.284-6.716-15-15-15z" fill="#69a5ff"/></svg>